<?xml version="1.0" standalone="no"?>
<!DOCTYPE svg PUBLIC "-//W3C//DTD SVG 20010904//EN"
 "http://www.w3.org/TR/2001/REC-SVG-20010904/DTD/svg10.dtd">
<svg version="1.0" xmlns="http://www.w3.org/2000/svg"
 width="360.000000pt" height="360.000000pt" viewBox="0 0 360.000000 360.000000"
 preserveAspectRatio="xMidYMid meet">
<metadata>
Created by potrace 1.11, written by Peter Selinger 2001-2013
</metadata>
<g transform="translate(0.000000,360.000000) scale(0.100000,-0.100000)"
fill="#000000" stroke="none">
<path d="M875 2834 c-14 -15 -25 -35 -25 -46 0 -11 -11 -23 -25 -28 -14 -5
-25 -15 -26 -22 -6 -78 -5 -87 5 -81 7 4 7 1 -1 -7 -14 -16 -70 -4 -82 18 -6
10 -5 23 3 34 9 16 7 22 -7 33 -11 7 -25 11 -32 9 -14 -6 -26 -87 -13 -92 11
-5 10 -32 -2 -33 -5 -1 -17 -1 -25 -1 -38 0 -46 3 -54 25 -6 15 -4 27 5 37 18
21 2 44 -25 37 -12 -3 -24 -1 -27 4 -3 5 -12 9 -20 9 -11 0 -10 -7 7 -29 12
-17 18 -34 14 -41 -6 -9 -10 -8 -17 4 -5 9 -13 16 -19 16 -5 0 -1 -10 11 -22
11 -12 20 -28 20 -35 0 -7 9 -22 20 -33 11 -11 16 -20 10 -20 -6 0 -6 -9 0
-25 5 -14 6 -25 3 -25 -4 0 -2 -5 5 -12 7 -7 12 -20 12 -30 0 -21 11 -23 29
-5 11 10 13 10 7 0 -9 -15 10 -18 19 -3 4 6 11 8 16 5 5 -4 9 -1 9 6 0 8 5 7
17 -2 15 -12 16 -12 10 3 -3 10 -1 20 5 24 6 4 8 3 5 -3 -4 -6 0 -14 9 -17 23
-9 34 -7 34 5 0 5 -6 7 -12 3 -7 -4 -9 -3 -5 1 10 12 38 15 31 4 -3 -5 1 -10
8 -10 7 -1 20 -2 28 -3 8 -1 21 3 29 9 11 7 13 7 7 -2 -5 -9 -1 -13 11 -14 27
-2 56 -6 73 -10 8 -2 14 2 12 9 -1 8 2 11 8 7 6 -3 8 -11 5 -16 -4 -5 15 -18
41 -29 25 -11 59 -30 75 -41 22 -15 29 -17 29 -6 0 8 9 24 20 37 11 13 20 32
20 42 0 11 5 16 10 13 6 -3 10 1 10 9 0 9 5 16 10 16 6 0 10 5 10 11 0 5 -5 7
-12 3 -7 -4 -8 -3 -4 5 4 6 10 9 14 7 4 -2 21 7 37 21 21 17 23 21 8 14 -44
-22 -25 19 22 48 18 11 17 12 -11 7 -17 -3 -36 0 -42 6 -17 17 -33 -2 -28 -33
2 -16 0 -27 -5 -23 -5 3 -9 -2 -9 -10 0 -19 -60 -22 -78 -4 -16 16 -15 28 3
28 8 0 15 7 15 16 0 8 -4 12 -10 9 -6 -3 -7 1 -4 9 3 9 10 16 15 16 13 0 11
34 -3 48 -18 18 -51 -5 -44 -32 7 -28 -26 -49 -67 -44 -28 4 -50 18 -28 18 8
0 11 6 7 16 -4 10 -2 13 6 8 8 -5 9 -2 5 9 -3 9 -2 19 3 22 18 11 11 53 -10
60 -15 5 -19 12 -14 30 5 21 -19 85 -32 85 -3 0 -16 -12 -29 -26z m-50 -154
c-3 -5 -12 -10 -18 -10 -7 0 -6 4 3 10 19 12 23 12 15 0z m-262 -50 c3 -11 1
-18 -4 -14 -5 3 -9 12 -9 20 0 20 7 17 13 -6z m281 -108 c3 -5 -1 -9 -9 -9 -8
0 -12 4 -9 9 3 4 7 8 9 8 2 0 6 -4 9 -8z m-199 -22 c3 -5 1 -10 -4 -10 -6 0
-11 5 -11 10 0 6 2 10 4 10 3 0 8 -4 11 -10z m234 -13 c0 -9 -2 -8 -6 1 -2 6
-10 9 -15 6 -7 -4 -8 -2 -4 5 9 13 26 5 25 -12z m107 -9 c4 -7 3 -8 -4 -4 -7
4 -12 2 -12 -5 0 -7 -3 -10 -6 -6 -6 5 3 27 11 27 2 0 7 -5 11 -12z m24 -18
c0 -5 -8 -10 -17 -10 -15 0 -16 2 -3 10 19 12 20 12 20 0z m44 -22 c-3 -4 -9
-8 -15 -8 -5 0 -9 4 -9 8 0 5 7 9 15 9 8 0 12 -4 9 -9z m30 -16 c2 -4 -5 -9
-17 -9 -17 -2 -19 0 -7 7 18 12 18 12 24 2z"/>
<path d="M2385 2376 c-15 -14 -36 -28 -46 -31 -11 -4 -17 -11 -14 -16 4 -5 2
-9 -4 -9 -5 0 -13 -10 -17 -22 -13 -37 -13 -49 -2 -42 6 4 8 2 4 -4 -3 -5 0
-13 6 -16 7 -3 3 -3 -9 0 -18 4 -22 2 -17 -10 4 -9 1 -16 -6 -16 -7 0 -10 -7
-7 -15 4 -8 2 -17 -4 -20 -5 -4 -7 -10 -4 -15 3 -5 0 -12 -6 -15 -5 -4 -8 -13
-5 -20 3 -8 1 -15 -3 -17 -4 -2 -21 -42 -38 -90 -22 -64 -27 -90 -19 -99 8 -9
7 -10 -6 -6 -21 7 -24 -12 -5 -33 10 -12 9 -12 -5 -2 -11 9 -18 10 -23 2 -3
-5 -1 -10 4 -10 6 0 11 -5 11 -12 0 -6 -3 -8 -7 -5 -7 8 -32 -23 -33 -41 0 -7
5 -10 12 -6 7 4 8 3 4 -4 -4 -6 -13 -9 -21 -5 -26 9 -18 97 20 224 44 148 44
169 4 203 -46 39 -112 39 -145 1 -12 -14 -24 -22 -28 -18 -3 3 -6 1 -6 -6 0
-7 -4 -9 -10 -6 -16 10 -12 -42 5 -59 18 -17 20 -30 4 -20 -8 5 -10 -1 -7 -20
3 -14 1 -26 -4 -26 -5 0 -8 -6 -7 -12 1 -7 -1 -25 -5 -39 -4 -14 -8 -40 -10
-57 -1 -17 -5 -35 -9 -38 -4 -4 -7 -12 -7 -17 0 -6 12 0 27 14 l28 24 -20 -25
c-11 -14 -24 -28 -30 -32 -6 -4 -2 -13 10 -23 12 -9 14 -13 5 -10 -11 4 -16
-2 -18 -20 -1 -14 4 -25 11 -25 7 0 8 -3 2 -8 -5 -4 -12 -14 -14 -22 -2 -8 -6
-24 -9 -35 -5 -18 -4 -19 14 -5 18 14 18 14 5 -3 -8 -9 -16 -15 -19 -12 -3 3
-11 0 -19 -6 -14 -12 -14 -13 -17 56 -1 17 4 59 11 95 17 90 16 98 -12 126
-20 20 -23 29 -15 45 16 28 -13 84 -52 100 -42 17 -127 -1 -193 -42 -78 -49
-155 -113 -150 -126 2 -7 -1 -12 -8 -10 -7 1 -11 -4 -9 -11 1 -8 -2 -11 -7 -8
-12 8 -72 -77 -74 -104 -1 -11 -5 -20 -9 -20 -11 0 -30 -79 -22 -92 5 -7 3 -8
-6 -3 -10 6 -12 4 -7 -8 3 -9 -1 -18 -10 -21 -9 -4 -13 -9 -10 -13 4 -3 2 -12
-4 -20 -9 -10 -8 -17 1 -28 11 -13 10 -14 -5 -9 -13 5 -16 4 -11 -4 4 -7 2
-12 -5 -12 -7 0 -10 -3 -7 -6 4 -3 -5 -30 -18 -60 -13 -30 -21 -54 -17 -54 3
0 -2 -9 -12 -20 -26 -28 -45 -9 -45 46 0 23 36 185 80 358 44 174 80 330 80
347 0 22 -10 41 -35 66 -30 30 -40 34 -77 31 -31 -2 -45 -9 -53 -24 -6 -11
-18 -20 -27 -18 -10 1 -22 -4 -29 -12 -9 -11 -8 -14 2 -14 11 0 11 -2 -1 -10
-12 -7 -12 -12 4 -28 11 -13 13 -22 7 -26 -6 -4 -10 -19 -9 -34 0 -25 -3 -48
-18 -112 -3 -14 -6 -27 -6 -30 0 -3 -7 -25 -14 -50 -7 -25 -15 -56 -17 -70 -2
-14 -9 -36 -14 -50 -8 -18 -7 -27 1 -32 8 -5 7 -8 -2 -8 -7 0 -10 -4 -7 -10 3
-5 2 -10 -3 -10 -16 0 -34 -101 -21 -117 10 -11 8 -12 -7 -7 -10 4 -16 4 -12
-1 4 -4 3 -14 -3 -21 -7 -8 -7 -14 1 -19 7 -4 7 -13 -1 -27 -9 -16 -8 -19 3
-13 10 6 11 5 1 -6 -15 -16 -17 -59 -3 -59 6 0 10 -5 10 -11 0 -5 -5 -7 -10
-4 -6 4 -9 -3 -7 -16 2 -13 10 -25 17 -27 8 -3 10 0 5 8 -5 9 -4 11 4 6 9 -6
9 -11 1 -21 -13 -16 -2 -43 26 -66 12 -9 15 -9 10 -1 -4 6 -2 12 3 12 6 0 11
-6 11 -14 0 -15 35 -32 57 -28 6 2 14 -2 17 -7 8 -12 67 4 78 21 4 7 8 9 8 4
0 -5 7 -2 16 5 9 7 26 18 38 24 11 5 36 39 53 75 18 36 33 57 33 48 0 -23 20
-34 32 -17 8 11 9 11 5 -2 -7 -21 11 -39 31 -32 10 4 13 2 8 -5 -4 -7 -1 -13
6 -13 7 -1 23 -3 36 -4 13 -1 29 4 36 11 8 7 16 10 20 7 3 -4 6 -1 6 5 0 7 7
12 17 12 26 0 89 74 109 129 20 56 26 60 51 32 9 -11 20 -18 25 -15 4 3 8 0 8
-5 0 -6 5 -11 11 -11 5 0 7 6 4 13 -4 6 0 4 8 -5 8 -10 17 -15 20 -11 4 3 7 1
7 -5 0 -7 12 -12 26 -12 21 0 25 4 21 20 -3 11 -1 18 4 14 5 -3 9 -12 9 -21 0
-14 2 -14 23 0 12 9 40 26 62 38 22 11 44 26 48 33 6 7 7 4 3 -7 -5 -14 -1
-17 22 -14 20 3 26 9 24 23 -2 15 -1 16 7 5 7 -11 18 -8 60 17 29 18 53 27 56
21 4 -5 1 -8 -5 -7 -7 2 -20 -21 -29 -50 -15 -48 -25 -59 -102 -116 -73 -55
-139 -116 -124 -116 3 0 -4 -9 -15 -20 -12 -12 -25 -33 -31 -48 -11 -29 -4
-72 11 -72 6 0 10 -6 10 -14 0 -8 7 -17 16 -20 8 -3 12 -2 9 3 -3 5 -1 13 5
16 6 4 10 3 9 -2 -8 -46 55 -40 143 14 78 48 121 99 184 220 32 62 58 99 70
102 10 2 25 11 32 20 7 9 10 10 6 2 -5 -11 6 -13 64 -9 39 2 68 0 66 -4 -3 -4
2 -8 11 -8 10 0 13 5 9 13 -4 6 1 4 12 -5 22 -20 59 -18 59 3 0 8 13 16 29 19
68 12 47 126 -27 144 -40 10 -127 -6 -198 -37 l-36 -16 19 72 c11 40 21 79 23
87 3 8 11 40 20 70 102 354 108 385 79 414 -8 9 -18 16 -22 17 -4 0 -19 3 -34
5 -19 3 -34 -3 -53 -20z m-46 -110 c0 -7 -2 -6 -6 2 -2 6 -8 10 -12 8 -4 -3
-8 1 -8 9 0 11 4 12 14 4 7 -6 13 -17 12 -23z m-1199 -43 c-11 -17 -11 -17 -6
0 3 10 6 24 7 30 0 9 2 9 5 0 3 -7 0 -20 -6 -30z m40 -23 c0 -5 -8 -10 -17
-10 -15 0 -16 2 -3 10 19 12 20 12 20 0z m-37 -35 c-3 -9 -8 -14 -10 -11 -3 3
-2 9 2 15 9 16 15 13 8 -4z m861 0 c-4 -8 -11 -12 -16 -9 -6 4 -5 10 3 15 19
12 19 11 13 -6z m-834 -19 c0 -2 -7 -7 -16 -10 -8 -3 -12 -2 -9 4 6 10 25 14
25 6z m833 -41 c-3 -9 -8 -14 -10 -11 -3 3 -2 9 2 15 9 16 15 13 8 -4z m-182
-84 c-8 -2 -17 2 -19 8 -2 6 -9 8 -15 4 -7 -4 -6 1 2 10 13 17 15 16 31 0 15
-16 15 -18 1 -22z m168 -6 c0 -5 -4 -3 -9 5 -5 8 -9 22 -9 30 0 16 17 -16 18
-35z m-227 -1 c-3 -18 -15 -30 -33 -37 -29 -11 -49 -43 -42 -65 3 -6 10 -9 15
-6 7 4 8 2 4 -5 -5 -8 -12 -9 -20 -2 -8 7 -16 -3 -30 -35 -16 -40 -16 -45 -2
-60 9 -8 16 -18 16 -22 0 -3 -5 -1 -12 6 -17 17 -33 15 -18 -3 11 -13 10 -14
-6 -9 -18 7 -18 6 1 -17 11 -13 13 -18 5 -11 -18 16 -27 15 -27 -3 0 -8 4 -12
8 -10 10 7 5 -22 -6 -32 -4 -4 -5 -2 -1 5 4 6 3 12 -2 12 -9 0 -27 -47 -24
-62 1 -5 -3 -8 -9 -8 -7 0 -9 -11 -5 -27 3 -16 3 -22 0 -15 -3 6 -10 9 -15 6
-6 -3 -5 -11 2 -20 10 -12 9 -13 -5 -8 -11 4 -16 1 -16 -11 0 -9 -6 -15 -12
-12 -37 12 3 207 64 310 49 84 107 147 133 147 13 0 27 5 30 10 10 17 12 11 7
-16z m482 17 c3 -5 -1 -11 -9 -14 -9 -4 -12 -1 -8 9 6 16 10 17 17 5z m-1117
-21 c-1 -21 -10 -18 -13 5 -1 8 2 15 6 15 5 0 8 -9 7 -20z m839 -5 c-1 -8 -5
-17 -8 -21 -5 -4 -4 16 1 34 3 9 9 -1 7 -13z m-853 -66 c-8 -8 -13 -7 -18 2
-5 8 -4 10 3 5 7 -4 12 -2 12 5 0 7 3 9 7 6 4 -4 2 -12 -4 -18z m-17 -57 c-17
-16 -18 -16 -5 5 7 12 15 20 18 17 3 -2 -3 -12 -13 -22z m865 1 c-12 -20 -14
-14 -5 12 4 9 9 14 11 11 3 -2 0 -13 -6 -23z m-271 -7 c0 -2 -8 -10 -17 -17
-16 -13 -17 -12 -4 4 13 16 21 21 21 13z m-607 -51 c-7 -21 -12 -19 -10 4 0
11 5 18 9 15 4 -3 5 -11 1 -19z m312 15 c3 -5 1 -10 -4 -10 -6 0 -11 5 -11 10
0 6 2 10 4 10 3 0 8 -4 11 -10z m-28 -50 c-1 -11 -5 -20 -9 -20 -10 0 -10 4
-2 24 8 22 13 20 11 -4z m-297 -30 c0 -5 -4 -10 -10 -10 -5 0 -10 5 -10 10 0
6 5 10 10 10 6 0 10 -4 10 -10z m1128 -35 c-3 -3 -9 2 -12 12 -6 14 -5 15 5 6
7 -7 10 -15 7 -18z m-1138 -11 c0 -2 -7 -4 -15 -4 -8 0 -15 4 -15 10 0 5 7 7
15 4 8 -4 15 -8 15 -10z m967 -11 c-4 -3 -1 -13 6 -22 11 -14 10 -14 -5 -2
-16 12 -16 31 -1 31 4 0 3 -3 0 -7z m-397 -17 c0 -2 -7 -7 -16 -10 -8 -3 -12
-2 -9 4 6 10 25 14 25 6z m131 -13 c13 -16 12 -17 -3 -4 -17 13 -22 21 -14 21
2 0 10 -8 17 -17z m-710 -10 c13 -16 12 -17 -3 -4 -10 7 -18 15 -18 17 0 8 8
3 21 -13z m730 -16 c-10 -9 -11 -8 -5 6 3 10 9 15 12 12 3 -3 0 -11 -7 -18z
m380 0 c-10 -9 -11 -8 -5 6 3 10 9 15 12 12 3 -3 0 -11 -7 -18z m-354 -12 c0
-8 -4 -12 -9 -9 -5 3 -6 10 -3 15 9 13 12 11 12 -6z m658 -3 c-3 -3 -11 0 -18
7 -9 10 -8 11 6 5 10 -3 15 -9 12 -12z m75 8 c0 -5 -7 -7 -15 -4 -8 4 -15 8
-15 10 0 2 7 4 15 4 8 0 15 -4 15 -10z m-1497 -14 c6 -15 -17 -16 -30 -1 -4 4
-2 5 5 1 6 -4 12 -2 12 3 0 15 7 14 13 -3z m1527 0 c0 -3 -4 -8 -10 -11 -5 -3
-10 -1 -10 4 0 6 5 11 10 11 6 0 10 -2 10 -4z m-1538 -73 c-6 -2 -9 -10 -6
-15 4 -7 2 -8 -5 -4 -13 9 -5 26 12 25 9 0 8 -2 -1 -6z m375 1 c-3 -3 -12 -4
-19 -1 -8 3 -5 6 6 6 11 1 17 -2 13 -5z m-129 -49 c-3 -3 -9 2 -12 12 -6 14
-5 15 5 6 7 -7 10 -15 7 -18z m152 15 c0 -5 -2 -10 -4 -10 -3 0 -8 5 -11 10
-3 6 -1 10 4 10 6 0 11 -4 11 -10z m-385 -49 c-6 -5 -25 10 -25 20 0 5 6 4 14
-3 8 -7 12 -15 11 -17z m435 15 c0 -3 -4 -8 -10 -11 -5 -3 -10 -1 -10 4 0 6 5
11 10 11 6 0 10 -2 10 -4z m500 0 c0 -2 -8 -10 -17 -17 -16 -13 -17 -12 -4 4
13 16 21 21 21 13z m104 -22 c3 -8 2 -12 -4 -9 -6 3 -10 4 -10 1 0 -2 -3 -13
-7 -23 -6 -16 -5 -17 13 -3 18 14 18 14 5 -2 -7 -10 -17 -15 -22 -12 -5 2 -11
-7 -15 -21 -3 -14 -11 -25 -16 -25 -6 0 -8 -6 -5 -13 3 -7 -3 -13 -13 -14 -42
-3 -30 45 25 100 43 43 41 42 49 21z m-584 2 c0 -2 -7 -7 -16 -10 -8 -3 -12
-2 -9 4 6 10 25 14 25 6z m-411 -50 c-3 -3 -11 5 -18 17 -13 21 -12 21 5 5 10
-10 16 -20 13 -22z m-42 -1 c0 -8 -4 -12 -9 -9 -4 3 -8 9 -8 15 0 5 4 9 8 9 5
0 9 -7 9 -15z m848 -55 c-9 -16 -18 -30 -21 -30 -2 0 2 14 11 30 9 17 18 30
21 30 2 0 -2 -13 -11 -30z m-770 11 c3 -5 2 -12 -3 -15 -5 -3 -9 1 -9 9 0 17
3 19 12 6z m69 -9 c3 -5 -1 -9 -9 -9 -8 0 -15 4 -15 9 0 4 4 8 9 8 6 0 12 -4
15 -8z m751 -50 c14 -17 15 -23 5 -20 -22 5 -42 27 -35 39 4 5 8 9 9 7 0 -2
10 -13 21 -26z m20 -52 c-3 -5 -12 -10 -18 -10 -7 0 -6 4 3 10 19 12 23 12 15
0z"/>
<path d="M736 2323 c-36 -19 -45 -26 -103 -81 -44 -42 -46 -43 -65 -25 -14 13
-36 18 -77 18 -50 0 -63 -5 -126 -47 -39 -26 -88 -64 -111 -85 -59 -55 -142
-166 -136 -182 2 -8 0 -11 -6 -7 -15 9 -22 -20 -9 -33 7 -7 8 -12 2 -11 -22 5
-29 -1 -15 -10 13 -9 13 -10 0 -10 -9 0 -21 -13 -27 -30 -6 -16 -7 -30 -2 -30
5 0 9 -5 9 -11 0 -5 -4 -8 -9 -4 -5 3 -13 -5 -17 -17 -4 -13 -2 -24 5 -26 15
-5 14 -23 -1 -19 -7 1 -13 -7 -15 -18 -6 -51 -10 -73 -17 -84 -4 -6 -2 -19 6
-28 10 -13 10 -15 0 -9 -10 6 -13 -4 -11 -48 2 -40 6 -56 16 -56 8 0 11 5 7
11 -4 8 0 7 15 -1 18 -9 21 -30 5 -30 -3 0 -2 5 1 10 7 12 -5 13 -22 2 -18
-11 19 -67 57 -87 32 -17 96 -12 84 6 -4 8 11 13 19 7 2 -2 16 5 31 16 17 11
25 13 20 5 -12 -20 -17 -47 -18 -111 0 -31 -3 -55 -6 -53 -12 7 -9 -89 2 -103
10 -12 10 -14 1 -8 -17 10 -18 -55 -1 -72 9 -9 9 -12 -1 -12 -8 0 -6 -12 9
-38 21 -37 58 -62 93 -62 12 0 16 4 11 13 -6 9 -5 9 8 0 12 -11 18 -9 33 7 10
11 24 20 31 20 19 0 44 29 44 51 0 12 -7 19 -20 19 -39 0 -53 67 -36 173 15
93 28 133 47 146 14 8 19 9 14 1 -4 -7 6 -5 24 4 17 9 34 17 38 17 33 4 230
129 293 185 93 84 169 207 194 312 37 159 -20 369 -116 426 -33 20 -114 20
-152 -1z m54 -123 c0 -5 -5 -10 -11 -10 -5 0 -7 5 -4 10 3 6 8 10 11 10 2 0 4
-4 4 -10z m-30 -4 c0 -2 -7 -7 -16 -10 -8 -3 -12 -2 -9 4 6 10 25 14 25 6z
m-14 -26 c8 0 13 -6 12 -12 -2 -7 2 -12 8 -11 6 1 11 -10 11 -25 1 -15 7 -45
13 -67 6 -22 11 -50 11 -62 0 -13 5 -23 12 -23 7 0 8 -3 2 -8 -11 -8 -13 -15
-20 -68 -2 -19 -1 -33 3 -30 5 3 14 0 22 -5 13 -9 13 -10 0 -8 -32 3 -38 -2
-45 -41 -4 -22 -11 -42 -16 -46 -5 -3 -9 -12 -9 -20 0 -8 5 -12 10 -9 16 10
11 -1 -7 -16 -11 -10 -14 -10 -9 -1 4 6 5 12 2 12 -11 0 -37 -61 -30 -72 4 -7
3 -8 -4 -4 -11 6 -38 -31 -34 -47 1 -4 -2 -6 -6 -5 -4 2 -20 -9 -36 -25 -15
-15 -37 -34 -50 -42 -29 -19 -136 -56 -136 -47 0 4 5 24 11 46 6 21 12 46 14
55 25 119 121 442 142 474 47 76 85 118 100 113 8 -3 21 -6 29 -6z m68 -6 c9
-24 2 -26 -12 -4 -7 11 -8 20 -3 20 5 0 12 -7 15 -16z m-4 -49 c0 -5 -5 -3
-10 5 -5 8 -10 20 -10 25 0 6 5 3 10 -5 5 -8 10 -19 10 -25z m-380 -37 c0 -19
-16 -5 -17 14 -2 18 0 20 7 8 5 -8 10 -18 10 -22z m401 8 c5 3 9 0 9 -6 0 -15
-23 -7 -26 8 -1 7 0 8 3 2 2 -5 9 -8 14 -4z m-427 -48 c7 -5 6 -8 -5 -8 -11 0
-20 -21 -32 -71 -9 -39 -14 -76 -11 -81 5 -7 2 -8 -6 -3 -8 5 -11 3 -8 -6 3
-8 -1 -27 -9 -43 -12 -22 -12 -26 -1 -20 11 6 11 5 0 -8 -6 -8 -21 -50 -32
-93 -16 -62 -17 -80 -8 -87 9 -5 9 -8 2 -8 -17 0 -26 -30 -15 -44 6 -8 6 -17
-1 -26 -8 -12 -9 -12 -4 3 3 9 1 17 -4 17 -6 0 -10 -10 -10 -22 0 -38 -11 -66
-28 -73 -55 -21 -43 99 35 340 35 111 117 284 122 260 2 -11 8 -23 15 -27z
m414 -13 c-3 -3 -9 2 -12 12 -6 14 -5 15 5 6 7 -7 10 -15 7 -18z m27 6 c3 -5
2 -12 -3 -15 -5 -3 -9 1 -9 9 0 17 3 19 12 6z m10 -31 c-3 -5 -12 -10 -18 -10
-7 0 -6 4 3 10 19 12 23 12 15 0z m-464 -23 c-10 -9 -11 -8 -5 6 3 10 9 15 12
12 3 -3 0 -11 -7 -18z m-5 -53 c1 -9 0 -13 -4 -10 -3 4 -7 14 -8 22 -1 9 0 13
4 10 3 -4 7 -14 8 -22z m449 -44 c3 -6 -1 -7 -9 -4 -18 7 -21 14 -7 14 6 0 13
-4 16 -10z m-464 -27 c-5 -10 -9 -22 -9 -26 0 -5 -3 -11 -6 -14 -7 -7 1 34 9
47 11 17 16 11 6 -7z m-288 -38 c-3 -9 -8 -14 -10 -11 -3 3 -2 9 2 15 9 16 15
13 8 -4z m727 5 c0 -5 -2 -10 -4 -10 -3 0 -8 5 -11 10 -3 6 -1 10 4 10 6 0 11
-4 11 -10z m-479 -63 c-10 -9 -11 -8 -5 6 3 10 9 15 12 12 3 -3 0 -11 -7 -18z
m-241 3 c0 -5 -5 -10 -11 -10 -5 0 -7 5 -4 10 3 6 8 10 11 10 2 0 4 -4 4 -10z
m710 6 c0 -2 -7 -7 -16 -10 -8 -3 -12 -2 -9 4 6 10 25 14 25 6z m-456 -42 c3
-8 2 -12 -4 -9 -6 3 -10 10 -10 16 0 14 7 11 14 -7z m-14 -24 c0 -5 -4 -10
-10 -10 -5 0 -10 5 -10 10 0 6 5 10 10 10 6 0 10 -4 10 -10z m407 -22 c-3 -8
-6 -5 -6 6 -1 11 2 17 5 13 3 -3 4 -12 1 -19z m-673 -14 c3 -8 2 -12 -4 -9 -6
3 -10 10 -10 16 0 14 7 11 14 -7z m261 7 c3 -5 0 -13 -6 -17 -7 -4 -9 -3 -5 4
3 5 0 13 -6 15 -9 4 -10 6 -1 6 6 1 14 -3 18 -8z m-281 -62 c-3 -6 0 -15 7
-20 9 -6 10 -9 2 -9 -15 0 -26 17 -18 30 3 6 8 10 11 10 3 0 2 -5 -2 -11z
m271 -9 c-3 -5 -12 -10 -18 -10 -7 0 -6 4 3 10 19 12 23 12 15 0z m-258 -52
c-3 -8 -6 -5 -6 6 -1 11 2 17 5 13 3 -3 4 -12 1 -19z m250 -13 c0 -8 -4 -12
-9 -9 -5 3 -6 10 -3 15 9 13 12 11 12 -6z m-20 -61 c0 -7 -6 -10 -14 -7 -7 3
-13 8 -13 12 0 4 6 8 13 8 8 0 14 -6 14 -13z m-217 -54 c0 -5 -5 -10 -11 -10
-5 0 -7 5 -4 10 3 6 8 10 11 10 2 0 4 -4 4 -10z m73 -13 c3 -8 -1 -14 -8 -14
-7 0 -11 6 -8 14 3 7 6 13 8 13 2 0 5 -6 8 -13z m129 -29 c-6 -6 -12 -6 -17 3
-6 8 -4 10 5 4 9 -5 10 -1 6 16 -6 21 -6 22 5 6 7 -13 8 -22 1 -29z m-29 -73
c-3 -9 -8 -14 -10 -11 -3 3 -2 9 2 15 9 16 15 13 8 -4z m14 -77 c-3 -7 -5 -2
-5 12 0 14 2 19 5 13 2 -7 2 -19 0 -25z m-9 -57 c11 -7 10 -9 -3 -14 -9 -4
-14 -3 -10 2 3 5 -1 12 -7 14 -7 3 -8 6 -3 6 6 0 16 -3 23 -8z m22 -49 c0 -5
-7 -9 -15 -9 -8 0 -12 4 -9 9 3 4 9 8 15 8 5 0 9 -4 9 -8z m8 -97 c-3 -3 -9 2
-12 12 -6 14 -5 15 5 6 7 -7 10 -15 7 -18z m26 -20 c-4 -8 -11 -15 -16 -15 -6
0 -5 6 2 15 7 8 14 15 16 15 2 0 1 -7 -2 -15z m-34 -7 c0 -4 -4 -8 -9 -8 -6 0
-12 4 -15 8 -3 5 1 9 9 9 8 0 15 -4 15 -9z m90 -18 c8 -5 11 -10 5 -10 -5 0
-17 5 -25 10 -8 5 -10 10 -5 10 6 0 17 -5 25 -10z"/>
<path d="M500 1219 c0 -5 11 -14 25 -19 l25 -10 0 -164 c0 -163 -3 -180 -34
-181 -5 0 -11 -6 -13 -12 -4 -10 16 -13 76 -13 69 0 81 2 81 17 0 9 -3 13 -6
10 -4 -3 -15 -2 -25 4 -16 8 -19 21 -19 74 0 62 1 65 25 65 25 0 53 -22 158
-120 71 -67 148 -117 202 -131 67 -18 165 4 165 37 0 11 -4 12 -19 4 -33 -17
-109 -12 -154 11 -50 26 -79 49 -175 142 l-73 70 30 24 c40 32 59 91 41 132
-21 52 -77 71 -203 70 -61 0 -107 -5 -107 -10z m225 -45 c46 -30 41 -104 -8
-137 -13 -9 -43 -16 -66 -15 l-41 0 0 83 c0 45 3 85 8 89 10 11 79 -2 107 -20z"/>
<path d="M2080 1220 c0 -4 14 -13 30 -19 24 -8 36 -22 53 -63 61 -148 143
-320 152 -320 6 0 44 85 85 188 65 162 78 189 99 194 14 3 26 11 28 17 3 9
-19 12 -76 11 -61 -1 -81 -4 -81 -14 0 -8 9 -14 20 -14 11 0 23 -6 25 -12 3
-7 -17 -69 -44 -138 -45 -111 -51 -122 -59 -100 -6 14 -31 72 -56 129 -25 57
-46 105 -46 108 0 2 14 9 30 14 54 19 32 28 -65 28 -52 0 -95 -4 -95 -9z"/>
<path d="M1022 1117 c-57 -11 -118 -69 -127 -121 -25 -131 119 -227 251 -167
61 28 98 82 98 140 -1 57 -14 82 -58 116 -40 31 -107 44 -164 32z m105 -53
c73 -47 77 -171 7 -203 -59 -27 -124 -7 -161 48 -73 108 45 227 154 155z"/>
<path d="M1646 1096 c-45 -42 -74 -106 -82 -185 -6 -55 -13 -66 -36 -62 -5 0
-8 -6 -8 -14 0 -12 15 -15 75 -15 61 0 73 3 69 15 -3 8 -9 14 -12 13 -23 -2
-32 5 -32 27 0 14 5 25 10 26 6 0 36 1 67 2 55 0 57 -1 58 -26 1 -19 -4 -27
-22 -32 -48 -12 -21 -25 52 -25 48 0 75 4 75 11 0 6 -9 13 -20 16 -13 4 -20
14 -21 32 -5 105 -48 199 -107 233 -29 17 -29 17 -66 -16z m73 -39 c11 -18 23
-52 27 -75 l7 -42 -66 0 -65 0 9 38 c5 20 9 39 9 42 1 13 41 70 49 70 5 0 19
-15 30 -33z"/>
<path d="M2881 1119 c-159 -29 -192 -214 -51 -287 48 -25 113 -26 173 -3 24 9
27 16 27 55 0 36 4 46 20 51 42 13 17 25 -51 25 -52 0 -70 -3 -66 -12 2 -7 10
-13 18 -13 9 0 15 -14 17 -42 3 -46 -5 -52 -66 -45 -79 10 -127 115 -83 185
34 55 94 72 151 42 17 -9 30 -22 30 -30 0 -8 9 -15 20 -15 17 0 19 5 14 28 -9
43 -14 55 -20 50 -3 -3 -24 0 -47 6 -27 8 -58 10 -86 5z"/>
<path d="M3177 1088 c-46 -47 -77 -122 -77 -188 0 -30 -6 -43 -27 -59 l-28
-20 78 -1 c49 0 77 4 77 11 0 6 -9 13 -20 16 -13 3 -20 14 -20 29 0 13 3 24 8
25 33 4 81 4 101 -1 33 -8 36 -38 5 -52 -42 -19 -26 -28 51 -28 72 0 97 12 55
25 -11 3 -20 9 -21 13 0 4 -3 29 -5 57 -6 60 -36 130 -72 168 -49 52 -57 52
-105 5z m82 -36 c11 -21 22 -55 26 -75 l7 -37 -65 0 -64 0 8 43 c4 23 8 45 9
48 0 12 41 59 51 59 5 0 17 -17 28 -38z"/>
<path d="M1220 1104 c0 -7 10 -14 23 -16 14 -2 41 -29 74 -72 43 -58 51 -76
51 -112 0 -27 -6 -48 -15 -56 -9 -7 -18 -12 -20 -10 -1 1 -4 -1 -5 -5 -2 -5
30 -9 70 -11 61 -2 72 0 72 13 0 9 -4 14 -8 11 -18 -11 -34 14 -35 55 0 36 8
57 44 112 26 41 53 70 67 73 12 4 22 12 22 19 0 8 -18 12 -59 11 -63 -1 -90
-13 -53 -23 12 -3 22 -7 22 -10 0 -2 -14 -25 -31 -49 l-31 -46 -33 49 c-24 36
-29 49 -18 51 8 2 12 9 10 15 -5 17 -147 18 -147 1z"/>
<path d="M1870 1103 c0 -7 9 -13 19 -13 25 0 27 -9 25 -115 -3 -127 -2 -123
-24 -130 -48 -15 -13 -25 89 -25 l109 0 25 45 c29 51 15 63 -25 21 -22 -23
-45 -30 -95 -27 -22 1 -22 4 -22 112 1 108 2 111 27 120 39 15 17 24 -59 24
-50 1 -69 -3 -69 -12z"/>
<path d="M2474 1108 c-3 -4 3 -11 13 -15 29 -11 31 -21 32 -135 0 -82 -3 -108
-13 -108 -8 0 -19 -7 -26 -15 -11 -13 1 -15 99 -15 l111 0 19 40 c21 45 8 55
-24 20 -15 -16 -29 -20 -64 -18 l-46 3 2 40 c0 22 2 45 2 51 1 7 20 10 51 8
43 -2 50 0 50 16 0 16 -9 19 -52 22 l-52 3 0 35 c0 35 1 35 47 36 37 1 48 -3
52 -17 3 -10 12 -16 19 -13 15 6 9 64 -8 65 -62 6 -208 4 -212 -3z"/>
<path d="M3432 1107 c-6 -7 -15 -25 -21 -40 -16 -40 2 -73 55 -105 62 -36 83
-59 76 -84 -11 -44 -84 -42 -108 3 -25 49 -44 31 -28 -28 8 -28 63 -47 111
-38 66 12 101 73 72 126 -5 11 -36 36 -67 56 -67 43 -74 51 -61 75 14 26 63
23 86 -5 23 -29 42 -24 35 9 -3 15 -15 29 -29 35 -35 13 -109 11 -121 -4z"/>
</g>
</svg>
