<?xml version="1.0" standalone="no"?>
<!DOCTYPE svg PUBLIC "-//W3C//DTD SVG 20010904//EN"
 "http://www.w3.org/TR/2001/REC-SVG-20010904/DTD/svg10.dtd">
<svg version="1.0" xmlns="http://www.w3.org/2000/svg"
 width="177.000000pt" height="177.000000pt" viewBox="0 0 177.000000 177.000000"
 preserveAspectRatio="xMidYMid meet">
<metadata>
Created by potrace 1.11, written by Peter Selinger 2001-2013
</metadata>
<g transform="translate(0.000000,177.000000) scale(0.100000,-0.100000)"
fill="#000000" stroke="none">
<path d="M392 1351 c-12 -17 -22 -36 -22 -44 0 -21 -12 -28 -26 -16 -7 6 -10
17 -7 25 3 9 -1 14 -12 14 -13 0 -16 -6 -12 -26 3 -17 0 -28 -10 -31 -17 -7
-34 14 -27 32 3 7 -4 15 -14 17 -17 5 -19 2 -12 -29 5 -19 14 -48 20 -63 11
-26 16 -28 44 -23 17 3 37 11 45 17 11 8 13 8 7 -1 -4 -8 -2 -13 6 -13 8 0 20
6 27 13 10 10 12 9 9 -2 -2 -7 4 -15 12 -16 8 -2 31 -10 51 -18 l36 -16 35 53
c30 44 32 52 18 53 -10 1 -20 -7 -23 -19 -4 -13 -12 -18 -24 -16 -10 2 -16 11
-14 19 7 29 6 42 -5 46 -6 2 -14 -5 -17 -17 -3 -11 -12 -20 -21 -20 -12 0 -15
6 -10 24 3 14 2 31 -2 38 -5 7 -9 19 -9 27 0 26 -21 22 -43 -8z"/>
<path d="M1099 1152 c-22 -22 -47 -83 -42 -99 3 -7 0 -13 -6 -13 -6 0 -10 -3
-10 -7 1 -5 0 -11 -1 -15 -1 -5 -4 -12 -5 -18 -1 -5 -4 -12 -5 -15 -1 -3 -3
-8 -5 -12 -1 -5 -8 -21 -15 -38 -7 -16 -12 -34 -11 -40 1 -5 -3 -5 -9 2 -10 9
-10 23 0 65 7 29 17 61 22 71 24 47 -33 91 -77 59 -25 -17 -33 -46 -16 -57 6
-3 4 -17 -5 -33 -17 -33 -18 -54 -1 -71 10 -10 9 -12 -3 -9 -14 3 -15 -1 -18
-50 -1 -13 -6 -20 -12 -17 -7 4 -8 23 -4 48 9 54 7 81 -4 85 -6 2 -8 11 -5 21
7 29 -23 52 -60 46 -60 -11 -174 -111 -162 -143 3 -8 0 -10 -7 -6 -7 5 -9 0
-6 -14 4 -12 2 -20 -2 -17 -9 6 -35 -69 -33 -93 0 -7 -2 -11 -5 -7 -3 3 -11
-7 -18 -22 -11 -26 -12 -26 -20 -9 -5 13 6 75 31 175 43 172 44 187 19 206
-22 15 -32 14 -63 -7 -21 -15 -22 -20 -13 -48 8 -22 8 -29 0 -24 -7 5 -9 0 -6
-14 4 -12 3 -22 -1 -22 -4 0 -8 -6 -8 -12 0 -7 -4 -22 -9 -32 -5 -14 -4 -17 5
-11 8 4 6 -3 -4 -18 -10 -16 -14 -35 -10 -49 4 -16 3 -19 -3 -10 -7 11 -11 8
-15 -9 -4 -13 -1 -26 5 -30 7 -5 7 -8 0 -10 -6 -2 -14 -19 -17 -37 -4 -26 -3
-32 7 -26 11 6 10 5 0 -8 -10 -13 -10 -19 3 -32 9 -9 13 -16 8 -16 -13 -1 30
-24 50 -27 27 -4 76 25 89 52 13 29 21 31 38 10 7 -8 20 -15 29 -15 29 0 77
37 90 69 12 29 15 30 34 16 28 -19 62 -19 92 1 13 9 28 13 33 10 5 -3 23 4 40
15 37 22 42 23 42 8 0 -5 -4 -7 -10 -4 -5 3 -10 -3 -10 -13 0 -11 -17 -32 -37
-47 -49 -36 -92 -86 -93 -106 0 -9 8 -23 18 -32 16 -15 21 -14 60 3 49 22 71
45 102 108 29 57 60 69 125 49 30 -9 69 24 61 51 -10 30 -49 38 -97 19 -21 -8
-39 -12 -39 -9 0 4 12 48 25 97 44 158 47 174 41 190 -7 20 -47 18 -67 -3z
m-249 -152 c0 -5 -2 -10 -4 -10 -3 0 -8 5 -11 10 -3 6 -1 10 4 10 6 0 11 -4
11 -10z m-42 -24 c-9 -6 -25 -36 -38 -66 -49 -122 -54 -130 -62 -122 -23 23
41 173 86 204 17 11 30 -4 14 -16z m27 -154 c-3 -3 -11 0 -18 7 -9 10 -8 11 6
5 10 -3 15 -9 12 -12z m-167 -67 c-3 -3 -9 2 -12 12 -6 14 -5 15 5 6 7 -7 10
-15 7 -18z m291 -40 c-12 -19 -25 -32 -30 -29 -10 6 3 29 30 52 22 18 22 15 0
-23z m-55 -43 c3 -5 -1 -9 -9 -9 -8 0 -12 4 -9 9 3 4 7 8 9 8 2 0 6 -4 9 -8z"/>
<path d="M335 1131 c-17 -10 -36 -25 -43 -34 -11 -13 -18 -14 -38 -5 -35 16
-95 -14 -151 -76 -48 -54 -67 -91 -57 -108 4 -6 2 -8 -3 -5 -6 4 -15 -10 -21
-33 -7 -29 -7 -40 2 -40 7 0 7 -3 -2 -8 -7 -5 -14 -26 -16 -47 -2 -30 3 -45
20 -62 24 -24 49 -30 59 -13 3 6 11 10 16 10 11 0 4 -103 -7 -122 -4 -6 -2 -8
3 -5 6 4 14 0 17 -9 3 -8 2 -12 -4 -9 -15 10 -12 -18 6 -43 19 -27 41 -28 74
-2 23 19 24 21 8 31 -36 21 -14 143 26 153 41 10 144 76 176 112 50 57 71 109
71 174 1 120 -63 186 -136 141z m31 -69 c-3 -10 0 -41 7 -69 8 -29 10 -50 5
-47 -4 3 -9 -4 -9 -15 -4 -65 -59 -144 -117 -168 -19 -8 -36 -13 -38 -11 -5 6
56 230 72 260 19 38 44 60 60 54 8 -3 14 -1 14 4 0 6 3 10 6 10 3 0 3 -8 0
-18z m-176 -47 c-10 -12 -10 -15 1 -15 8 0 6 -5 -6 -13 -10 -8 -15 -19 -11
-25 4 -7 2 -12 -5 -12 -7 0 -9 -3 -6 -7 4 -3 1 -13 -6 -21 -10 -13 -9 -14 3
-7 13 7 13 6 2 -7 -7 -9 -14 -31 -16 -49 -2 -19 -8 -45 -14 -59 -5 -14 -8 -35
-7 -46 1 -17 -2 -20 -17 -16 -16 4 -18 11 -14 41 8 56 62 210 81 231 21 23 33
27 15 5z m-45 -493 c-3 -3 -11 0 -18 7 -9 10 -8 11 6 5 10 -3 15 -9 12 -12z"/>
<path d="M241 617 c21 -17 24 -155 3 -178 -13 -15 -11 -16 26 -16 22 0 40 4
40 8 0 5 -4 9 -10 9 -5 0 -10 16 -10 35 0 45 17 45 61 -1 69 -74 143 -107 193
-88 25 10 19 22 -9 16 -42 -7 -68 5 -127 61 -57 53 -58 54 -38 72 26 24 25 60
-2 79 -28 20 -153 23 -127 3z m107 -19 c26 -26 9 -62 -33 -70 -15 -2 -20 4
-26 34 -3 21 -4 40 -1 43 10 9 48 5 60 -7z"/>
<path d="M1025 619 c12 -6 35 -47 59 -104 22 -52 43 -92 46 -90 4 3 22 43 41
91 18 47 39 89 46 91 26 10 12 23 -23 23 -30 0 -34 -2 -25 -14 9 -11 7 -27 -9
-70 -12 -31 -23 -56 -26 -56 -2 0 -15 25 -29 56 -24 54 -24 57 -8 70 16 12 11
13 -37 13 -43 0 -51 -3 -35 -10z"/>
<path d="M467 564 c-14 -8 -29 -26 -35 -41 -27 -80 78 -138 142 -78 43 40 32
103 -21 123 -35 13 -54 12 -86 -4z m91 -31 c15 -21 16 -65 0 -81 -18 -18 -63
-14 -83 8 -22 25 -23 70 0 86 21 16 66 8 83 -13z"/>
<path d="M596 572 c-2 -1 12 -19 30 -39 35 -38 44 -79 23 -100 -8 -8 -1 -11
25 -11 20 0 36 4 36 9 0 5 -4 9 -10 9 -5 0 -10 10 -10 23 0 25 45 97 61 97 6
0 8 4 5 8 -2 4 -17 7 -33 6 -39 -3 -40 -3 -24 -13 11 -7 11 -12 -2 -31 l-15
-21 -15 21 c-9 12 -14 27 -11 34 3 7 -8 11 -27 11 -17 0 -32 -1 -33 -3z"/>
<path d="M798 563 c-24 -28 -37 -58 -40 -92 -1 -17 -6 -31 -10 -31 -4 0 -8 -4
-8 -9 0 -12 59 -11 66 1 3 4 0 8 -5 8 -6 0 -11 6 -11 14 0 9 11 13 30 12 31
-1 38 -14 19 -33 -7 -7 17 -10 83 -10 72 1 96 4 105 16 21 27 14 34 -13 16
-40 -26 -54 -14 -54 50 0 32 4 55 11 55 5 0 8 4 5 9 -3 4 -17 7 -32 5 -26 -2
-47 -14 -26 -14 12 0 18 -111 6 -122 -14 -15 -41 5 -42 32 -1 40 -41 110 -62
110 -4 0 -14 -8 -22 -17z m45 -37 c10 -31 8 -35 -21 -41 -29 -5 -36 10 -22 46
15 35 30 33 43 -5z"/>
<path d="M1217 568 c-9 -6 -9 -8 1 -8 8 0 12 -19 12 -60 0 -33 -4 -60 -10 -60
-5 0 -10 -4 -10 -8 0 -13 98 -8 112 6 17 17 3 25 -22 12 -15 -8 -26 -8 -32 -2
-16 16 -5 47 16 47 11 0 21 6 24 13 2 8 -5 11 -19 10 -16 -2 -24 3 -27 16 -3
16 1 18 27 14 21 -3 31 0 31 9 0 7 -3 13 -7 14 -45 4 -87 3 -96 -3z"/>
<path d="M1400 573 c-60 -22 -77 -86 -35 -128 36 -37 115 -33 115 5 0 11 5 22
10 25 19 12 10 22 -20 22 -30 0 -39 -10 -20 -22 16 -10 -1 -35 -26 -35 -34 0
-60 43 -48 78 13 36 57 52 82 29 24 -22 31 -21 25 3 -3 11 -13 20 -23 20 -10
0 -24 2 -32 4 -7 3 -20 2 -28 -1z"/>
<path d="M1558 563 c-24 -28 -38 -59 -40 -90 -1 -15 -9 -33 -18 -40 -12 -10
-8 -12 23 -11 21 1 40 5 43 10 3 4 0 8 -5 8 -6 0 -11 6 -11 13 0 8 12 14 30
14 30 0 39 -14 20 -33 -7 -7 2 -10 25 -11 34 -1 46 9 25 22 -6 4 -8 10 -5 15
12 19 -44 120 -65 120 -4 0 -14 -8 -22 -17z m43 -30 c13 -35 5 -53 -22 -48
-31 6 -33 11 -19 45 15 37 27 38 41 3z"/>
<path d="M1693 570 c-13 -5 -23 -18 -23 -29 0 -20 4 -25 49 -59 14 -11 21 -24
17 -30 -11 -18 -44 -14 -56 6 -9 15 -10 14 -8 -8 4 -32 50 -40 79 -14 28 25
24 39 -21 75 -28 23 -37 36 -30 43 7 7 17 7 31 -2 27 -17 40 -5 15 14 -22 16
-23 16 -53 4z"/>
</g>
</svg>
